<svg xmlns="http://www.w3.org/2000/svg" width="1024" height="1024" viewBox="0 0 1024 1024">
  <rect x="0" y="0" width="1024" height="1024" rx="230" ry="230" fill="#8BC34A"/>
  <!-- 줄기 -->
  <path d="M512 470 Q 466 660 548 812" stroke="#ffffff" stroke-width="36" fill="none" stroke-linecap="round"/>
  <!-- 네 잎: 하트 4개를 중심(512,460)에서 90도씩 회전 -->
  <g fill="#ffffff" transform="translate(512,470)">
    <g transform="rotate(0)">
      <path d="M0 0 C -40 -90 -175 -90 -175 -205 C -175 -278 -92 -308 0 -232 C 92 -308 175 -278 175 -205 C 175 -90 40 -90 0 0 Z"/>
    </g>
    <g transform="rotate(90)">
      <path d="M0 0 C -40 -90 -175 -90 -175 -205 C -175 -278 -92 -308 0 -232 C 92 -308 175 -278 175 -205 C 175 -90 40 -90 0 0 Z"/>
    </g>
    <g transform="rotate(180)">
      <path d="M0 0 C -40 -90 -175 -90 -175 -205 C -175 -278 -92 -308 0 -232 C 92 -308 175 -278 175 -205 C 175 -90 40 -90 0 0 Z"/>
    </g>
    <g transform="rotate(270)">
      <path d="M0 0 C -40 -90 -175 -90 -175 -205 C -175 -278 -92 -308 0 -232 C 92 -308 175 -278 175 -205 C 175 -90 40 -90 0 0 Z"/>
    </g>
  </g>
</svg>
