<svg xmlns="http://www.w3.org/2000/svg" width="1024" height="1024" viewBox="0 0 1024 1024">
  <rect x="0" y="0" width="1024" height="1024" rx="230" ry="230" fill="#8BC34A"/>
  <!-- 줄기: 중앙 하단에서 오른쪽으로 휘어짐 -->
  <path d="M512 520 Q 500 700 600 800" stroke="#ffffff" stroke-width="34" fill="none" stroke-linecap="round"/>
  <!-- 네 잎: 하트를 대각선(45°)으로 4개 -->
  <g fill="#ffffff" transform="translate(512,500)">
    <g transform="rotate(45)"><path d="M0 0 C -40 -88 -170 -88 -170 -200 C -170 -272 -90 -300 0 -226 C 90 -300 170 -272 170 -200 C 170 -88 40 -88 0 0 Z"/></g>
    <g transform="rotate(135)"><path d="M0 0 C -40 -88 -170 -88 -170 -200 C -170 -272 -90 -300 0 -226 C 90 -300 170 -272 170 -200 C 170 -88 40 -88 0 0 Z"/></g>
    <g transform="rotate(225)"><path d="M0 0 C -40 -88 -170 -88 -170 -200 C -170 -272 -90 -300 0 -226 C 90 -300 170 -272 170 -200 C 170 -88 40 -88 0 0 Z"/></g>
    <g transform="rotate(315)"><path d="M0 0 C -40 -88 -170 -88 -170 -200 C -170 -272 -90 -300 0 -226 C 90 -300 170 -272 170 -200 C 170 -88 40 -88 0 0 Z"/></g>
  </g>
</svg>
